<svg xmlns="http://www.w3.org/2000/svg" width="800" height="600"><rect id="prefix__backgroundrect" width="100%" height="100%" x="0" y="0" fill="none" stroke="none"/><defs><marker id="prefix__arrowhead" markerWidth="10" markerHeight="7" refX="9" refY="3.5" orient="auto"><path fill="#2563eb" id="prefix__svg_1" d="M0 0l10 3.5L0 7z"/></marker><style>.prefix__zone{cursor:pointer;transition:all .3s ease}.prefix__zone:hover{opacity:.8;transform:scale(1.02)}.prefix__zone-text{font-family:Arial,sans-serif;font-size:12px;font-weight:700;text-anchor:middle}.prefix__flow-line{stroke:#2563eb;stroke-width:3;fill:none;marker-end:url(#prefix__arrowhead)}.prefix__pipe{stroke:#6b7280;stroke-width:4;fill:none}.prefix__wells-zone{fill:#3b82f6}.prefix__clean-plant-zone{fill:#06b6d4}.prefix__tanks-zone{fill:#6b7280}.prefix__customers-zone{fill:#10b981}.prefix__wastewater1-zone{fill:#f59e0b}.prefix__wastewater2-zone{fill:#ef4444}</style></defs><g class="prefix__currentLayer"><path fill="#f8fafc" stroke="#e2e8f0" stroke-width="2" id="prefix__svg_2" class="prefix__selected" d="M-.157-.865h800v600h-800z"/><path class="prefix__flow-line" transform="rotate(-147.216 440.78 425.796)" id="prefix__svg_28" d="M412.84 442.56l55.879-33.528"/><path class="prefix__flow-line" transform="rotate(31.792 551.09 426.375)" id="prefix__svg_52" d="M523.151 443.139l55.879-33.528"/><path fill="#f8fafc" fill-opacity="1" stroke="#4141e8" stroke-opacity="1" stroke-width="2.5" stroke-dasharray="none" stroke-linejoin="miter" stroke-linecap="butt" fill-rule="nonzero" opacity="1" d="M515.932 213.753l1.384 213.53" id="prefix__svg_47"/><rect x="219.73" y="97.211" width="115.5" height="23.694" rx="5" fill="#FBBF24" id="prefix__svg_63"/><text x="279.73" y="114.211" text-anchor="middle" font-size="13" fill="#543c00" id="prefix__svg_22">Jasan 800-1000m³</text><path class="prefix__flow-line" transform="rotate(31.633 205.618 315.79)" id="prefix__svg_21" d="M176.64 333.177l57.955-34.773"/><path class="prefix__flow-line" transform="rotate(-69.504 87.102 232.36)" id="prefix__svg_20" d="M113.211 222.441l-52.218 19.838"/><path class="prefix__pipe" transform="rotate(53.513 369.214 173.505)" id="prefix__svg_94" d="M346.956 203.181l44.515-59.352"/><path fill="#f8fafc" fill-opacity="1" stroke="#4141e8" stroke-opacity="1" stroke-width="2" stroke-dasharray="none" stroke-linejoin="miter" stroke-linecap="butt" fill-rule="nonzero" opacity="1" d="M327.171 166.535l-.055 104.167" id="prefix__svg_93"/><text x="400" y="30" text-anchor="middle" font-family="Arial" font-size="16" font-weight="bold" fill="#1f2937" id="prefix__svg_3">SƠ ĐỒ HỆ THỐNG CẤP THOÁT NƯỚC PHỐ NỐI</text><g class="prefix__zone prefix__wells-zone" data-zone="wells" id="prefix__svg_4"><rect x="34.028" y="63.639" width="120" height="140" rx="10" class="prefix__wells-zone" id="prefix__svg_5"/><text x="94.028" y="87.639" class="prefix__zone-text" fill="#fff" id="prefix__svg_6">GIẾNG KHOAN</text><text x="94.028" y="107.639" class="prefix__zone-text" fill="#fff" font-size="10" id="prefix__svg_7">(6 giếng)</text><circle cx="64.028" cy="132.639" r="11" fill="#fff" id="prefix__svg_8"/><text x="64.028" y="136.639" text-anchor="middle" font-size="8" fill="#3b82f6" id="prefix__svg_9">GK1</text><circle cx="94.028" cy="132.639" r="11" fill="#fff" id="prefix__svg_10"/><text x="94.028" y="136.639" text-anchor="middle" font-size="8" fill="#3b82f6" id="prefix__svg_11">GK2</text><circle cx="124.028" cy="132.639" r="11" fill="#fff" id="prefix__svg_12"/><text x="124.028" y="136.639" text-anchor="middle" font-size="8" fill="#3b82f6" id="prefix__svg_13">GK3</text><circle cx="64.028" cy="162.639" r="11" fill="#fff" id="prefix__svg_14"/><text x="64.028" y="166.639" text-anchor="middle" font-size="8" fill="#3b82f6" id="prefix__svg_15">GK5</text><circle cx="94.028" cy="162.639" r="11" fill="#fff" id="prefix__svg_16"/><text x="94.028" y="166.639" text-anchor="middle" font-size="8" fill="#3b82f6" id="prefix__svg_17">5-TT</text><circle cx="124.028" cy="162.639" r="11" fill="#fbbf24" id="prefix__svg_18"/><text x="124.028" y="166.639" text-anchor="middle" font-size="8" fill="#92400e" id="prefix__svg_19">GK6</text></g><g class="prefix__zone prefix__clean-plant-zone" data-zone="clean-water-plant" id="prefix__svg_23"><rect x="33.523" y="264.315" width="139.517" height="100" rx="10" class="prefix__clean-plant-zone" id="prefix__svg_24"/><text x="103.552" y="289.315" class="prefix__zone-text" fill="#fff" id="prefix__svg_25" transform="matrix(.99655 0 0 1 .087 0)">NHÀ MÁY</text><text x="103.552" y="304.315" class="prefix__zone-text" fill="#fff" id="prefix__svg_26" transform="matrix(.99655 0 0 1 .087 0)">NƯỚC SẠCH</text><text x="103.552" y="329.315" class="prefix__zone-text" fill="#fff" font-size="10" id="prefix__svg_29" transform="matrix(.99655 0 0 1 .087 0)">Điện, PAC, Xút</text><text x="103.552" y="344.315" class="prefix__zone-text" fill="#fff" font-size="10" id="prefix__svg_30" transform="matrix(.99655 0 0 1 .087 0)">Polymer</text></g><g class="prefix__zone prefix__tanks-zone" data-zone="tanks" id="prefix__svg_31"><rect x="241.457" y="264.274" width="140" height="100" rx="10" class="prefix__tanks-zone" id="prefix__svg_32"/><text x="311.457" y="289.274" class="prefix__zone-text" fill="#fff" id="prefix__svg_33">BỂ CHỨA</text><text x="311.457" y="309.274" class="prefix__zone-text" fill="#fff" font-size="10" id="prefix__svg_34">Bể 1200 m³</text><text x="311.457" y="324.274" class="prefix__zone-text" fill="#fff" font-size="10" id="prefix__svg_35">Bể 2000 m³</text><text x="311.457" y="339.274" class="prefix__zone-text" fill="#fff" font-size="10" id="prefix__svg_36">Bể 4000 m³</text></g><g class="prefix__zone prefix__customers-zone" data-zone="customers" id="prefix__svg_37"><rect x="430.556" y="60.694" width="133.056" height="153.056" rx="10" class="prefix__customers-zone" id="prefix__svg_38"/><text x="500.744" y="83.029" class="prefix__zone-text" fill="#fff" id="prefix__svg_39" transform="matrix(.9504 0 0 .9566 21.178 5.184)">KHÁCH HÀNG</text><text x="500.744" y="107.051" class="prefix__zone-text" fill="#fff" font-size="10" id="prefix__svg_41" transform="matrix(.9504 0 0 .9566 21.178 5.184)">Đồng hồ NS/NT</text><rect x="444.811" y="137.222" width="104.544" height="14.349" rx="3" fill="#dcfce7" id="prefix__svg_42"/><text x="500.744" y="148.029" text-anchor="middle" font-size="8" fill="#166534" id="prefix__svg_43" transform="matrix(.9504 0 0 .9566 21.178 5.184)">Jasan (hàng ngày)</text><rect x="444.811" y="156.354" width="104.544" height="14.349" rx="3" fill="#dcfce7" id="prefix__svg_44"/><text x="500.744" y="168.029" text-anchor="middle" font-size="8" fill="#166534" id="prefix__svg_45" transform="matrix(.9504 0 0 .9566 21.178 5.184)">Nhuộm HY</text></g><g class="prefix__zone prefix__wastewater1-zone" data-zone="wastewater-plant-1" id="prefix__svg_48"><rect x="266.955" y="389.709" width="140" height="90" rx="10" class="prefix__wastewater1-zone" id="prefix__svg_49"/><text x="336.955" y="417.709" class="prefix__zone-text" fill="#fff" id="prefix__svg_50">NHÀ MÁY</text><text x="336.955" y="432.709" class="prefix__zone-text" fill="#fff" id="prefix__svg_51">NƯỚC THẢI 1</text><text x="336.955" y="460.709" class="prefix__zone-text" fill="#fff" font-size="10" id="prefix__svg_54">TQT, Bùn, Điện</text></g><g class="prefix__zone prefix__wastewater2-zone" data-zone="wastewater-plant-2" id="prefix__svg_55"><rect x="582.896" y="389.606" width="135.062" height="94.074" rx="10" class="prefix__wastewater2-zone" id="prefix__svg_56"/><text x="667.028" y="406.656" class="prefix__zone-text" fill="#fff" id="prefix__svg_57" transform="matrix(.96473 0 0 .94074 6.927 30.567)">NHÀ MÁY</text><text x="667.028" y="421.656" class="prefix__zone-text" fill="#fff" id="prefix__svg_58" transform="matrix(.96473 0 0 .94074 6.927 30.567)">NƯỚC THẢI 2</text><text x="667.028" y="452.656" class="prefix__zone-text" fill="#fff" font-size="10" id="prefix__svg_61" transform="matrix(.96473 0 0 .94074 6.927 30.567)">TQT, Bùn, Điện</text><text x="667.028" y="472.656" class="prefix__zone-text" fill="#fff" font-size="10" id="prefix__svg_62" transform="matrix(.96473 0 0 .94074 6.927 30.567)">Hóa chất</text></g><path class="prefix__flow-line" id="prefix__svg_65" transform="rotate(31.633 291.53 132.057)" d="M172.837 203.273L410.222 60.841"/><path class="prefix__flow-line" id="prefix__svg_68" transform="rotate(53.13 377.639 167.917)" d="M347.639 207.917l60-80"/><path class="prefix__pipe" id="prefix__svg_71" transform="rotate(30.855 277.917 127.85)" d="M169.735 190.822L386.1 64.879"/><path class="prefix__pipe" id="prefix__svg_72" transform="rotate(-36.499 332.497 220.743)" d="M302.776 260.371l59.442-79.256"/><g id="prefix__svg_27"><rect x="599.307" y="77.227" width="180" height="220" fill="#fff" stroke="#e2e8f0" stroke-width="1" rx="5" id="prefix__svg_74"/><text x="689.307" y="97.227" text-anchor="middle" font-size="12" font-weight="bold" fill="#1f2937" id="prefix__svg_75">CHÚ THÍCH</text><circle cx="614.307" cy="117.227" r="5" class="prefix__wells-zone" id="prefix__svg_76"/><text x="629.307" y="122.227" font-size="10" fill="#1f2937" id="prefix__svg_77">Giếng khoan</text><circle cx="614.307" cy="137.227" r="5" class="prefix__clean-plant-zone" id="prefix__svg_78"/><text x="629.307" y="142.227" font-size="10" fill="#1f2937" id="prefix__svg_79">Nhà máy nước sạch</text><circle cx="614.307" cy="157.227" r="5" class="prefix__tanks-zone" id="prefix__svg_80"/><text x="629.307" y="162.227" font-size="10" fill="#1f2937" id="prefix__svg_81">Bể chứa</text><circle cx="614.307" cy="177.227" r="5" class="prefix__customers-zone" id="prefix__svg_82"/><text x="629.307" y="182.227" font-size="10" fill="#1f2937" id="prefix__svg_83">Khách hàng</text><circle cx="614.307" cy="197.227" r="5" class="prefix__wastewater1-zone" id="prefix__svg_84"/><text x="629.307" y="202.227" font-size="10" fill="#1f2937" id="prefix__svg_85">NMNT số 1</text><circle cx="614.307" cy="217.227" r="5" class="prefix__wastewater2-zone" id="prefix__svg_86"/><text x="629.307" y="222.227" font-size="10" fill="#1f2937" id="prefix__svg_87">NMNT số 2</text><path class="prefix__flow-line" id="prefix__svg_88" d="M614.307 242.227h20"/><text x="639.307" y="246.227" font-size="10" fill="#1f2937" id="prefix__svg_89">Dòng chảy</text><text x="689.307" y="267.227" text-anchor="middle" font-size="9" fill="#6b7280" id="prefix__svg_90">Click vào khu vực</text><text x="689.307" y="279.227" text-anchor="middle" font-size="9" fill="#6b7280" id="prefix__svg_91">để nhập dữ liệu</text></g><path fill="#f8fafc" fill-opacity="1" stroke="#4141e8" stroke-opacity="1" stroke-width="2.5" stroke-dasharray="none" stroke-linejoin="miter" stroke-linecap="butt" fill-rule="nonzero" opacity="1" d="M471.563 213.729l1.382 214.384" id="prefix__svg_46"/></g></svg>